<svg width="210" height="149" viewBox="0 0 210 149" fill="none" xmlns="http://www.w3.org/2000/svg">
<path d="M76.6264 128.597C76.8245 127.451 77.2454 126.335 77.9274 125.394C78.6095 124.454 79.5607 123.696 80.6597 123.325C82.1536 122.821 83.7938 123.048 85.3413 122.747C86.8006 122.464 88.1228 121.723 89.4729 121.099C90.8229 120.475 92.2945 119.952 93.7681 120.148C94.8773 120.295 95.891 120.838 96.8606 121.398C97.8303 121.958 98.8034 122.552 99.8901 122.82C100.81 123.046 101.78 123.03 102.688 123.301C103.141 123.437 103.58 123.648 103.929 123.969C104.277 124.29 104.53 124.73 104.572 125.203C104.615 125.701 104.428 126.189 104.236 126.651C104.044 127.113 103.841 127.59 103.851 128.091C103.861 128.526 104.034 128.946 104.284 129.302C104.534 129.658 104.857 129.956 105.194 130.231C105.53 130.507 105.881 130.764 106.204 131.055C106.527 131.346 106.823 131.675 107.02 132.063C107.355 132.721 107.379 133.514 107.159 134.219C106.94 134.924 106.49 135.543 105.94 136.034C105.635 136.307 105.291 136.552 105.076 136.901C104.899 137.188 104.822 137.529 104.811 137.866C104.801 138.204 104.853 138.54 104.918 138.871C104.983 139.202 105.062 139.531 105.105 139.866C105.148 140.201 105.154 140.544 105.076 140.872C104.986 141.249 104.786 141.595 104.528 141.883C104.27 142.171 103.954 142.403 103.618 142.593C102.944 142.973 102.192 143.186 101.475 143.472C99.8731 144.111 98.4329 145.127 97.2252 146.361C96.8323 146.762 96.4625 147.186 96.047 147.564C95.6314 147.942 95.1635 148.274 94.6323 148.455C93.9454 148.688 93.1872 148.651 92.4897 148.452C91.7923 148.253 91.1486 147.898 90.5405 147.502C89.3245 146.709 88.1846 145.719 86.7817 145.35C85.5771 145.032 84.3049 145.208 83.0707 145.376C81.8365 145.545 80.5584 145.702 79.3633 145.35C78.7949 145.182 78.2576 144.9 77.8145 144.505C77.3714 144.111 77.0246 143.604 76.8425 143.039C76.5377 142.093 76.7045 141.07 76.7704 140.078C76.8554 138.8 76.7567 137.474 76.1942 136.323C76.0043 135.935 75.7644 135.572 75.5728 135.185C75.3812 134.797 75.2367 134.372 75.2579 133.94C75.2745 133.603 75.3911 133.278 75.5336 132.972C75.6761 132.666 75.8457 132.373 75.9782 132.063C76.4409 130.978 76.4255 129.759 76.6264 128.597Z" fill="url(#paint0_radial)"/>
<path d="M63.913 124.961C65.913 121.019 69.2816 118.511 73.2222 118.544C79.1501 119.612 82.8977 115.658 87.245 115.515C92.0216 115.088 95.492 114.583 100.295 114.394C110.679 111.458 113.224 122.181 120.181 123.932C122.63 124.542 126.377 124.346 127.211 121.411C127.532 118.717 124.519 117.052 123.437 114.75C121.689 112.048 121.159 106.148 118.492 104.485C109.314 99.1351 108.2 101.861 101.87 99.7276C98.7791 98.7515 90.0655 97.7433 86.6255 98.9725C81.3161 100.597 79.3025 101.193 75.631 102.272C73.0223 103.04 70.1789 103.164 67.7909 104.53C64.434 105.928 61.2105 107.814 57.6513 108.58C54.2185 109.97 53.7054 114.525 54.8127 117.665C56.1902 120.262 52.554 124.788 55.926 126.117C58.9488 126.959 58.4726 127.793 61.3755 126.694C62.2478 126.344 63.2018 125.905 63.913 124.961V124.961Z" fill="url(#paint1_radial)"/>
<path d="M38.9746 115.702C42.324 107.614 53.2147 94.3525 63.6065 92.3092C73.7139 90.925 83.7835 92.8089 93.9204 91.137C105.336 90.1101 116.674 87.125 123.731 97.2351C129.057 103.035 137.527 119.384 143.581 105.02C145.449 100.156 141.212 79.8669 137.857 76.6974C130.358 70.2261 119.289 73.5158 110.384 70.498C98.6197 68.3517 85.587 60.6998 74.2164 68.3071C66.9067 74.3922 50.8679 75.3226 42.8113 75.8705C32.5641 77.4502 34.4753 89.5462 28.8054 96.4578C19.9072 107.821 37.2248 119.774 38.9746 115.702Z" fill="url(#paint2_radial)"/>
<path d="M152.868 86.3176C166.562 95.5931 172.324 68.2376 163.805 59.665C159.152 55.6047 153.778 49.4093 147.1 46.7142C140.393 44.0074 125.463 37.9701 119.363 34.8535C104.558 26.6314 94.4626 26.4139 78.3734 27.6578C64.7821 30.8146 50.5714 39.6459 36.8395 42.0373C20.1882 47.2878 10.5312 63.4329 1.46268 77.194C-5.12647 90.2465 12.3396 102.713 18.2802 86.8922C21.5556 77.3388 31.4825 72.1526 44.2953 67.3908C57.7781 61.8116 63.5593 54.1676 77.7677 51.5899C94.4102 50.5758 118.165 56.6711 133.952 62.0675C145.524 65.6277 146.587 78.3952 152.868 86.3176Z" fill="url(#paint3_radial)"/>
<path d="M154.395 63.3464C164.871 48.5972 180.826 28.5087 190.403 19.8937C199.98 11.2787 203.18 14.1369 197.955 26.4926C192.73 38.8483 179.076 60.7078 168.741 75.4793C158.406 90.2509 151.389 97.9373 146.14 100.329C140.89 102.721 137.408 99.8185 138.166 93.6618C138.923 87.5051 143.92 78.0956 154.395 63.3464L154.395 63.3464Z" fill="url(#paint4_linear)" stroke="black" stroke-width="1.5"/>
<path d="M138.226 95.8503C131.24 90.8965 120.769 98.098 121.498 107.232C122.231 112.706 119.003 116.812 114.159 116.413C113.831 120.076 119.596 122.777 122.677 123.825C127.261 125.253 131.994 124.262 136.722 122.368C143.049 120.083 148.666 111.71 146.672 103.932C145.197 99.7981 140.769 98.8812 138.226 95.8503V95.8503Z" fill="#1A1A1A" stroke="black" stroke-width="0.5"/>
<path d="M122.515 101.096C123.636 100.614 124.865 100.454 126.051 100.636C127.238 100.819 128.377 101.342 129.329 102.143C130.281 102.943 131.043 104.018 131.52 105.234C131.996 106.45 132.187 107.804 132.068 109.128C131.946 110.487 131.506 111.808 131.496 113.173C131.491 113.856 131.6 114.55 131.894 115.147C132.188 115.744 132.682 116.236 133.277 116.406C133.628 116.506 134.001 116.493 134.356 116.408C134.711 116.322 135.05 116.166 135.374 115.982C136.023 115.615 136.622 115.136 137.301 114.846C138.38 114.385 139.628 114.444 140.66 115.007C141.692 115.57 142.493 116.627 142.815 117.853" fill="#1A1A1A"/>
<path d="M122.515 101.096C123.636 100.614 124.865 100.454 126.051 100.636C127.238 100.819 128.377 101.342 129.329 102.143C130.281 102.943 131.043 104.018 131.52 105.234C131.996 106.45 132.187 107.804 132.068 109.128C131.946 110.487 131.506 111.808 131.496 113.173C131.491 113.856 131.6 114.55 131.894 115.147C132.188 115.744 132.682 116.236 133.277 116.406C133.628 116.506 134.001 116.493 134.356 116.408C134.711 116.322 135.05 116.166 135.374 115.982C136.023 115.615 136.622 115.136 137.301 114.846C138.38 114.385 139.628 114.444 140.66 115.007C141.692 115.57 142.493 116.627 142.815 117.853" stroke="black" stroke-width="0.264583"/>
<path d="M134.918 93.6251C134.918 93.6251 138.11 103.45 146.546 103.637Z" fill="url(#paint5_linear)"/>
<path d="M134.918 93.6251C134.918 93.6251 138.11 103.45 146.546 103.637" stroke="black" stroke-width="0.264583"/>
<path d="M146.608 103.712L156.738 92.0215C156.738 92.0215 147.766 88.598 143.225 79.7018L134.846 93.7832" fill="url(#paint6_linear)"/>
<path d="M146.608 103.712L156.738 92.0215C156.738 92.0215 147.766 88.598 143.225 79.7018L134.846 93.7832" stroke="black" stroke-width="0.677698"/>
<path d="M115.763 119.707C115.287 119.219 114.833 118.564 114.604 118.034C114.407 117.58 114.248 116.795 114.328 116.678C114.357 116.635 114.545 116.609 114.745 116.619C115.379 116.652 116.851 116.362 117.513 116.074C118.653 115.578 119.579 114.808 120.305 113.749C121.472 112.049 121.906 110.124 121.697 107.572C121.598 106.35 121.637 105.307 121.822 104.311C121.96 103.562 122.34 102.329 122.63 101.685C122.741 101.44 122.773 101.294 122.725 101.254C122.605 101.153 122.69 101.109 123.382 100.912C127.415 99.7661 131.444 102.829 131.958 107.431C132.055 108.302 131.997 109.121 131.731 110.651C131.42 112.441 131.366 113.174 131.483 113.99C131.61 114.873 131.885 115.474 132.376 115.939C133.348 116.862 134.29 116.779 136.164 115.608C137.145 114.995 137.501 114.83 138.106 114.711C139.682 114.4 141.301 115.169 142.205 116.657C142.475 117.102 142.746 117.813 142.681 117.907C142.555 118.091 141.481 119.152 140.978 119.59C139.685 120.715 138.331 121.533 136.666 122.195C134.202 123.174 132.442 123.681 130.31 124.027C126.431 124.658 123.626 124.257 120.062 122.563C118.983 122.051 117.991 121.477 117.155 120.883C116.411 120.353 116.307 120.266 115.763 119.707L115.763 119.707Z" fill="#008000"/>
<path d="M123.884 123.978C122.285 123.575 119.936 122.653 118.453 121.779C116.006 120.337 114.812 119.11 114.404 117.577L114.16 116.413L115.743 116.432C116.777 116.444 117.998 115.98 119.095 115.08C120.963 113.549 121.851 111.048 121.684 108.139C121.552 105.832 121.443 104.642 122.057 102.775L122.672 101.129L123.68 100.831C127.161 100.07 130.551 102.166 131.631 105.944C131.892 106.857 132.17 107.584 131.906 109.432C131.321 113.525 131.35 114.078 131.719 114.948C131.906 115.391 132.308 115.931 132.612 116.149C133.605 116.86 134.242 116.58 137.042 115.088C138.779 114.163 140.567 114.536 141.731 116.036C142.333 116.811 142.994 117.569 142.778 118.053C142.676 118.282 142.215 118.607 141.93 118.906C139.902 121.037 136.532 122.692 132.378 123.723C129.337 124.478 125.954 124.501 123.884 123.978V123.978Z" fill="url(#paint7_linear)"/>
<defs>
<radialGradient id="paint0_radial" cx="0" cy="0" r="1" gradientUnits="userSpaceOnUse" gradientTransform="translate(91.2792 134.361) rotate(-2.93049) scale(42.7033 19.7368)">
<stop stop-color="#3ACEC4"/>
<stop offset="1" stop-color="#45A29E"/>
</radialGradient>
<radialGradient id="paint1_radial" cx="0" cy="0" r="1" gradientUnits="userSpaceOnUse" gradientTransform="translate(91.8323 109.157) rotate(-0.260843) scale(59.5634 13.9269)">
<stop stop-color="#3ACEC4"/>
<stop offset="1" stop-color="#45A29E"/>
</radialGradient>
<radialGradient id="paint2_radial" cx="0" cy="0" r="1" gradientUnits="userSpaceOnUse" gradientTransform="translate(84.8673 90.4155) scale(58.7806 25.471)">
<stop stop-color="#3ACEC4"/>
<stop offset="1" stop-color="#45A29E"/>
</radialGradient>
<radialGradient id="paint3_radial" cx="0" cy="0" r="1" gradientUnits="userSpaceOnUse" gradientTransform="translate(83.9025 64.6277) scale(83.9682 29.7493)">
<stop stop-color="#3ACEC4"/>
<stop offset="1" stop-color="#45A29E"/>
</radialGradient>
<linearGradient id="paint4_linear" x1="179.255" y1="59.0713" x2="164.247" y2="49.8186" gradientUnits="userSpaceOnUse">
<stop stop-color="#84561E"/>
<stop offset="1" stop-color="#C29256"/>
</linearGradient>
<linearGradient id="paint5_linear" x1="147.84" y1="102.011" x2="135.126" y2="93.2894" gradientUnits="userSpaceOnUse">
<stop stop-color="#999999"/>
<stop offset="1" stop-color="#D7D7D7"/>
</linearGradient>
<linearGradient id="paint6_linear" x1="151.094" y1="98.7127" x2="137.483" y2="89.1142" gradientUnits="userSpaceOnUse">
<stop stop-color="#999999"/>
<stop offset="1" stop-color="#D7D7D7"/>
</linearGradient>
<linearGradient id="paint7_linear" x1="123.437" y1="114.75" x2="139.881" y2="121.891" gradientUnits="userSpaceOnUse">
<stop stop-color="#3ACEC4"/>
<stop offset="1" stop-color="#3ACEC4"/>
</linearGradient>
</defs>
</svg>
